<svg xmlns="http://www.w3.org/2000/svg" width="900" height="290" viewBox="0 0 900 290" role="img" aria-labelledby="title desc">
  <title id="title">Ghotet animated hooded mascot</title>
  <desc id="desc">A green hooded hacker avatar based closely on the Ghotet profile picture types at a keyboard while terminal panels scroll behind him.</desc>

  <defs>
    <linearGradient id="hood" x1="0" y1="0" x2="0.85" y2="1">
      <stop offset="0" stop-color="#55ff82"/>
      <stop offset="0.42" stop-color="#16ed5e"/>
      <stop offset="1" stop-color="#078b3c"/>
    </linearGradient>
    <linearGradient id="cloth" x1="0" y1="0" x2="0" y2="1">
      <stop offset="0" stop-color="#17dc5a"/>
      <stop offset="1" stop-color="#075f2e"/>
    </linearGradient>
    <filter id="glow" x="-60%" y="-60%" width="220%" height="220%">
      <feGaussianBlur stdDeviation="2" result="blur"/>
      <feMerge><feMergeNode in="blur"/><feMergeNode in="SourceGraphic"/></feMerge>
    </filter>
    <clipPath id="leftScreen"><rect x="105" y="65" width="180" height="88" rx="4"/></clipPath>
    <clipPath id="rightScreen"><rect x="615" y="65" width="180" height="88" rx="4"/></clipPath>
  </defs>

  <rect x="5" y="5" width="890" height="280" rx="18" fill="#0d1117" stroke="#30363d" stroke-width="2"/>

  <!-- scrolling terminal panels -->
  <g fill="#07110b" stroke="#00ad47" stroke-width="1.3" opacity="0.58">
    <rect x="92" y="52" width="205" height="112" rx="7"/>
    <rect x="603" y="52" width="205" height="112" rx="7"/>
  </g>

  <g clip-path="url(#leftScreen)" font-family="Consolas, Monaco, monospace" font-size="8.5" fill="#15d95a" opacity="0.72">
    <g>
      <text x="110" y="74">POST /runtime/infer  . . . 202</text>
      <text x="110" y="88">worker.stream :: chunk_31</text>
      <text x="110" y="102">ctx.compile  tokens=6842</text>
      <text x="110" y="116">provider=native  ready</text>
      <text x="110" y="130">memory.page :: selected</text>
      <text x="110" y="144">event.delta  +++++++++++++++++</text>
      <text x="110" y="158">POST /runtime/infer  . . . 202</text>
      <text x="110" y="172">worker.stream :: chunk_32</text>
      <animateTransform attributeName="transform" type="translate" values="0 0;0 -28" dur="3.8s" repeatCount="indefinite"/>
    </g>
  </g>

  <g clip-path="url(#rightScreen)" font-family="Consolas, Monaco, monospace" font-size="8.5" fill="#15d95a" opacity="0.72">
    <g>
      <text x="620" y="74">GET /health  . . . 200 OK</text>
      <text x="620" y="88">agent.daemia :: awake</text>
      <text x="620" y="102">gpu0  vram=active</text>
      <text x="620" y="116">semantic.snapshot :: sealed</text>
      <text x="620" y="130">stream.delta :: 00000110</text>
      <text x="620" y="144">queue.next  ................</text>
      <text x="620" y="158">GET /health  . . . 200 OK</text>
      <text x="620" y="172">agent.daemia :: awake</text>
      <animateTransform attributeName="transform" type="translate" values="0 0;0 -28" dur="4.4s" repeatCount="indefinite"/>
    </g>
  </g>

  <!-- avatar -->
  <g>
    <animateTransform attributeName="transform" type="translate" values="0 0;0 -1;0 0;0 0" keyTimes="0;0.2;0.4;1" dur="5.8s" repeatCount="indefinite"/>

    <!-- shoulders: deliberately narrower, matching the profile-avatar proportions -->
    <path d="M381 190 C398 176 419 169 450 169 C481 169 502 176 519 190 L542 244 H358 Z"
          fill="url(#cloth)" stroke="#19ef63" stroke-width="2.2"/>
    <path d="M399 187 L450 215 L501 187" fill="none" stroke="#063d20" stroke-width="4" opacity="0.72"/>

    <!-- hood silhouette follows the sharper A-shape of the profile picture -->
    <path d="M450 27
             C429 37 412 52 401 73
             C389 95 389 116 400 135
             C408 149 421 160 434 169
             L450 181
             L466 169
             C479 160 492 149 500 135
             C511 116 511 95 499 73
             C488 52 471 37 450 27 Z"
          fill="url(#hood)" stroke="#48ff7d" stroke-width="2.5"/>

    <!-- dark hood opening begins around forehead level; no mask-outline rings -->
    <path d="M450 54
             C432 59 418 70 409 87
             C400 104 402 121 414 136
             C423 147 435 157 450 166
             C465 157 477 147 486 136
             C498 121 500 104 491 87
             C482 70 468 59 450 54 Z"
          fill="#020504"/>

    <!-- glowing alien eyes; the opening itself is the mask -->
    <g fill="#2cff72" filter="url(#glow)">
      <path d="M417 102 C426 94 438 94 445 99 C442 114 435 124 422 128 C418 121 416 111 417 102 Z"/>
      <path d="M483 102 C474 94 462 94 455 99 C458 114 465 124 478 128 C482 121 484 111 483 102 Z"/>
      <animate attributeName="opacity" values="1;1;0;1;1;1;0;1" keyTimes="0;0.45;0.463;0.486;0.82;0.834;0.852;1" dur="7.4s" repeatCount="indefinite"/>
    </g>
    <g opacity="0" stroke="#2cff72" stroke-width="3.2" stroke-linecap="round" filter="url(#glow)">
      <path d="M419 113 Q431 119 443 113"/>
      <path d="M481 113 Q469 119 457 113"/>
      <animate attributeName="opacity" values="0;0;1;0;0;0;1;0" keyTimes="0;0.45;0.463;0.486;0.82;0.834;0.852;1" dur="7.4s" repeatCount="indefinite"/>
    </g>
    <path d="M444 145 Q450 149 456 145" fill="none" stroke="#087238" stroke-width="1.8" stroke-linecap="round"/>

    <!-- hoodie center seam / drawstrings, borrowed from the profile-pic silhouette -->
    <path d="M450 181 V207" stroke="#083e20" stroke-width="2" opacity="0.8"/>
    <path d="M437 183 L440 207 M463 183 L460 207" stroke="#21ef68" stroke-width="1.5" opacity="0.75"/>
    <circle cx="440" cy="209" r="2.3" fill="#16e85e"/>
    <circle cx="460" cy="209" r="2.3" fill="#16e85e"/>

    <!-- sleeves / forearms -->
    <path d="M393 196 C407 201 418 211 425 225" fill="none" stroke="#0ba84a" stroke-width="17" stroke-linecap="round"/>
    <path d="M507 196 C493 201 482 211 475 225" fill="none" stroke="#0ba84a" stroke-width="17" stroke-linecap="round"/>

    <!-- desk -->
    <path d="M303 247 H597" stroke="#52605a" stroke-width="3" stroke-linecap="round"/>
    <path d="M326 253 H574" stroke="#202923" stroke-width="8" stroke-linecap="round"/>

    <!-- keyboard -->
    <path d="M376 222 H524 L541 245 H359 Z" fill="#111713" stroke="#00c94f" stroke-width="2"/>
    <g stroke="#0b7136" stroke-width="1" opacity="0.9">
      <path d="M381 229 H519 M376 236 H524"/>
      <path d="M391 225 L387 242 M408 225 L405 242 M425 225 L423 242 M442 225 L441 242 M459 225 L460 242 M476 225 L478 242 M493 225 L496 242 M510 225 L515 242"/>
    </g>
    <rect x="436" y="239" width="28" height="3" rx="1.5" fill="#21ed67" opacity="0.55"/>

    <!-- typing hands -->
    <g fill="#15c956" stroke="#3aff7c" stroke-width="1.2">
      <path d="M401 213 C411 208 424 210 433 218 L429 227 C418 224 410 224 399 228 Z">
        <animateTransform attributeName="transform" type="translate" values="0 0;0 3;0 0;0 0" keyTimes="0;0.22;0.48;1" dur="0.64s" repeatCount="indefinite"/>
      </path>
      <path d="M499 213 C489 208 476 210 467 218 L471 227 C482 224 490 224 501 228 Z">
        <animateTransform attributeName="transform" type="translate" values="0 0;0 0;0 3;0 0" keyTimes="0;0.36;0.64;1" dur="0.64s" repeatCount="indefinite"/>
      </path>
    </g>

    <g fill="#36ff7b" opacity="0.8">
      <rect x="412" y="233" width="5" height="2"><animate attributeName="opacity" values="0;1;0;0" dur="0.64s" repeatCount="indefinite"/></rect>
      <rect x="483" y="231" width="5" height="2"><animate attributeName="opacity" values="0;0;1;0" dur="0.64s" repeatCount="indefinite"/></rect>
    </g>
  </g>
</svg>
